<?xml version="1.0" standalone="no"?>
<!DOCTYPE svg PUBLIC "-//W3C//DTD SVG 20010904//EN"
 "http://www.w3.org/TR/2001/REC-SVG-20010904/DTD/svg10.dtd">
<svg version="1.0" xmlns="http://www.w3.org/2000/svg"
 width="700.000000pt" height="700.000000pt" viewBox="0 0 700.000000 700.000000"
 preserveAspectRatio="xMidYMid meet">
<metadata>
Created by potrace 1.11, written by Peter Selinger 2001-2013
</metadata>
<g transform="translate(0.000000,700.000000) scale(0.100000,-0.100000)"
fill="#000000" stroke="none">
<path d="M3379 5633 c-63 -76 -124 -149 -136 -163 -96 -112 -613 -736 -613
-741 0 -4 75 -7 168 -7 92 0 180 0 196 -1 l28 -1 -58 -67 c-32 -38 -61 -70
-64 -73 -3 -3 -46 -52 -95 -110 -49 -58 -100 -116 -111 -130 -12 -14 -111
-128 -220 -255 l-197 -230 311 -5 310 -5 -56 -61 c-31 -33 -112 -119 -180
-191 -68 -72 -131 -140 -140 -151 -15 -17 -211 -227 -287 -307 -42 -45 -245
-264 -278 -300 l-27 -30 344 -5 344 -5 -172 -206 c-94 -114 -187 -226 -208
-250 -20 -24 -137 -165 -261 -314 l-225 -270 699 -3 699 -2 0 -263 0 -262
-700 0 -700 0 0 -87 0 -88 1750 0 1750 0 0 88 0 87 -702 0 -703 0 3 262 3 263
698 2 698 3 -105 125 c-57 69 -161 193 -229 275 -156 187 -195 235 -208 249
-6 6 -30 36 -55 66 -25 30 -55 66 -67 80 -11 14 -62 75 -112 135 l-92 110 345
5 346 5 -48 51 c-26 29 -76 83 -112 121 -36 38 -117 125 -180 193 -63 67 -131
139 -150 160 -19 20 -82 88 -140 150 -58 63 -133 144 -167 180 -34 36 -86 92
-116 125 l-55 60 309 5 310 5 -39 45 c-22 25 -128 149 -236 275 -109 127 -209
244 -224 260 -15 17 -50 57 -77 90 -28 33 -62 73 -77 90 -74 84 -88 100 -88
105 0 3 83 5 186 5 102 0 189 2 193 5 6 4 -501 621 -674 822 -11 13 -56 67
-99 121 -44 53 -83 97 -86 97 -4 0 -58 -62 -121 -137z"/>
</g>
</svg>
